<svg data-name="Шар 2" xmlns="http://www.w3.org/2000/svg" viewBox="0 0 13.86 13.86">
  <g data-name="Capa 1">
    <g>
      <circle fill="#fcc71d" stroke="#fcc71d" stroke-width="0.73px" cx="6.93"
        cy="6.93" r="6.56" />
      <path fill="#fff" stroke-width="0px"
        d="m10.65,3.94h-4.44c-.18,0-.36.07-.49.2-.13.13-.2.3-.2.49v.06h-1.92c-.07,0-.14.02-.2.06-.06.04-.11.09-.14.15l-.7,1.44c-.03.05-.04.11-.04.16v2.22c0,.08.03.15.08.2.05.05.13.08.2.08h.39c.04.25.17.48.37.65.2.17.44.26.7.26s.5-.09.7-.26c.2-.17.33-.39.37-.65h2.99c.04.25.17.48.37.65.2.17.44.26.7.26s.5-.09.7-.26c.2-.17.33-.39.37-.65h.49c.1,0,.2-.04.27-.11.07-.07.11-.17.11-.27v-4c0-.09-.02-.18-.05-.26-.03-.08-.08-.16-.15-.22-.06-.06-.14-.11-.22-.15-.08-.03-.17-.05-.26-.05Zm-6.93,1.32h1.8v.93h-2.25l.46-.93Zm.54,4.08c-.1,0-.2-.03-.29-.09-.09-.06-.15-.14-.19-.23-.04-.1-.05-.2-.03-.3.02-.1.07-.19.14-.27.07-.07.17-.12.27-.14.1-.02.21,0,.3.03.1.04.18.11.23.19.06.09.09.19.09.29,0,.14-.06.27-.15.37-.1.1-.23.15-.37.15Zm0-1.61c-.22,0-.44.07-.62.2-.18.13-.32.31-.4.51h-.15v-1.68h2.43v1.68h-.24c-.08-.21-.22-.39-.4-.51-.18-.13-.4-.19-.62-.19h0Zm5.12,1.61c-.1,0-.2-.03-.29-.09-.09-.06-.15-.14-.19-.23-.04-.1-.05-.2-.03-.3.02-.1.07-.19.14-.27.07-.07.17-.12.27-.14.1-.02.21,0,.3.03.1.04.18.11.23.19.06.09.09.19.09.29,0,.14-.06.27-.15.37-.1.1-.23.15-.37.15Zm1.38-.9h-.36c-.08-.21-.22-.39-.4-.51s-.4-.19-.62-.19-.44.07-.62.19c-.18.13-.32.31-.4.51h-2.27v-3.81s.01-.06.03-.08c.02-.02.05-.03.08-.03h4.44s.06.01.08.03c.02.02.03.05.03.08v3.81Z" />
    </g>
  </g>
</svg>